<svg width="129" height="105" viewBox="0 0 129 105" fill="none" xmlns="http://www.w3.org/2000/svg">
<path d="M51.6 68.9062H51.596C51.596 65.5881 51.8661 67.1159 34.4531 31.6825C30.8955 24.4453 20.7085 24.431 17.1449 31.6825C-0.41522 67.4194 0.00403125 65.6927 0.00403125 68.9062H0C0 77.9666 11.5515 85.3125 25.8 85.3125C40.0485 85.3125 51.6 77.9666 51.6 68.9062ZM25.8 36.0938L40.3125 65.625H11.2875L25.8 36.0938ZM128.996 68.9062C128.996 65.5881 129.266 67.1159 111.853 31.6825C108.295 24.4453 98.1085 24.431 94.5449 31.6825C76.9848 67.4194 77.404 65.6927 77.404 68.9062H77.4C77.4 77.9666 88.9515 85.3125 103.2 85.3125C117.448 85.3125 129 77.9666 129 68.9062H128.996ZM88.6875 65.625L103.2 36.0938L117.712 65.625H88.6875ZM106.425 91.875H70.95V31.4282C75.6887 29.318 79.2463 24.9724 80.3005 19.6875H106.425C108.207 19.6875 109.65 18.2191 109.65 16.4062V9.84375C109.65 8.03086 108.207 6.5625 106.425 6.5625H77.3274C74.3846 2.60039 69.7588 0 64.5 0C59.2412 0 54.6154 2.60039 51.6726 6.5625H22.575C20.7932 6.5625 19.35 8.03086 19.35 9.84375V16.4062C19.35 18.2191 20.7932 19.6875 22.575 19.6875H48.6995C49.7537 24.9703 53.3092 29.318 58.05 31.4282V91.875H22.575C20.7932 91.875 19.35 93.3434 19.35 95.1562V101.719C19.35 103.532 20.7932 105 22.575 105H106.425C108.207 105 109.65 103.532 109.65 101.719V95.1562C109.65 93.3434 108.207 91.875 106.425 91.875Z" fill="url(#paint0_linear_5_47)"/>
<defs>
<linearGradient id="paint0_linear_5_47" x1="10.1842" y1="8.43063e-08" x2="132.177" y2="174.9" gradientUnits="userSpaceOnUse">
<stop stop-color="#EBB3B3"/>
<stop offset="1" stop-color="#35A2BA"/>
</linearGradient>
</defs>
</svg>
