<svg width="195" height="35" viewBox="0 0 195 35" fill="none" xmlns="http://www.w3.org/2000/svg">
<path d="M5.825 14.025C6.225 13.375 6.8 12.85 7.55 12.45C8.3 12.05 9.15833 11.85 10.125 11.85C11.275 11.85 12.3167 12.1417 13.25 12.725C14.1833 13.3083 14.9167 14.1417 15.45 15.225C16 16.3083 16.275 17.5667 16.275 19C16.275 20.4333 16 21.7 15.45 22.8C14.9167 23.8833 14.1833 24.725 13.25 25.325C12.3167 25.9083 11.275 26.2 10.125 26.2C9.14167 26.2 8.28333 26.0083 7.55 25.625C6.81667 25.225 6.24167 24.7 5.825 24.05V26H1.55V7.5H5.825V14.025ZM11.925 19C11.925 17.9333 11.625 17.1 11.025 16.5C10.4417 15.8833 9.71667 15.575 8.85 15.575C8 15.575 7.275 15.8833 6.675 16.5C6.09167 17.1167 5.8 17.9583 5.8 19.025C5.8 20.0917 6.09167 20.9333 6.675 21.55C7.275 22.1667 8 22.475 8.85 22.475C9.7 22.475 10.425 22.1667 11.025 21.55C11.625 20.9167 11.925 20.0667 11.925 19ZM32.2928 12.05V26H28.0178V24.1C27.5844 24.7167 26.9928 25.2167 26.2428 25.6C25.5094 25.9667 24.6928 26.15 23.7928 26.15C22.7261 26.15 21.7844 25.9167 20.9678 25.45C20.1511 24.9667 19.5178 24.275 19.0678 23.375C18.6178 22.475 18.3928 21.4167 18.3928 20.2V12.05H22.6428V19.625C22.6428 20.5583 22.8844 21.2833 23.3678 21.8C23.8511 22.3167 24.5011 22.575 25.3178 22.575C26.1511 22.575 26.8094 22.3167 27.2928 21.8C27.7761 21.2833 28.0178 20.5583 28.0178 19.625V12.05H32.2928ZM43.6135 26L40.9385 22.125L38.6885 26H34.0635L38.6635 18.875L33.9385 12.05H38.7385L41.4135 15.9L43.6635 12.05H48.2885L43.6135 19.075L48.4135 26H43.6135ZM55.3607 11.85C56.3441 11.85 57.2024 12.05 57.9357 12.45C58.6857 12.85 59.2607 13.375 59.6607 14.025V12.05H63.9357V25.975C63.9357 27.2583 63.6774 28.4167 63.1607 29.45C62.6607 30.5 61.8857 31.3333 60.8357 31.95C59.8024 32.5667 58.5107 32.875 56.9607 32.875C54.8941 32.875 53.2191 32.3833 51.9357 31.4C50.6524 30.4333 49.9191 29.1167 49.7357 27.45H53.9607C54.0941 27.9833 54.4107 28.4 54.9107 28.7C55.4107 29.0167 56.0274 29.175 56.7607 29.175C57.6441 29.175 58.3441 28.9167 58.8607 28.4C59.3941 27.9 59.6607 27.0917 59.6607 25.975V24C59.2441 24.65 58.6691 25.1833 57.9357 25.6C57.2024 26 56.3441 26.2 55.3607 26.2C54.2107 26.2 53.1691 25.9083 52.2357 25.325C51.3024 24.725 50.5607 23.8833 50.0107 22.8C49.4774 21.7 49.2107 20.4333 49.2107 19C49.2107 17.5667 49.4774 16.3083 50.0107 15.225C50.5607 14.1417 51.3024 13.3083 52.2357 12.725C53.1691 12.1417 54.2107 11.85 55.3607 11.85ZM59.6607 19.025C59.6607 17.9583 59.3607 17.1167 58.7607 16.5C58.1774 15.8833 57.4607 15.575 56.6107 15.575C55.7607 15.575 55.0357 15.8833 54.4357 16.5C53.8524 17.1 53.5607 17.9333 53.5607 19C53.5607 20.0667 53.8524 20.9167 54.4357 21.55C55.0357 22.1667 55.7607 22.475 56.6107 22.475C57.4607 22.475 58.1774 22.1667 58.7607 21.55C59.3607 20.9333 59.6607 20.0917 59.6607 19.025ZM66.1785 19C66.1785 17.5667 66.4452 16.3083 66.9785 15.225C67.5285 14.1417 68.2702 13.3083 69.2035 12.725C70.1368 12.1417 71.1785 11.85 72.3285 11.85C73.3118 11.85 74.1702 12.05 74.9035 12.45C75.6535 12.85 76.2285 13.375 76.6285 14.025V12.05H80.9035V26H76.6285V24.025C76.2118 24.675 75.6285 25.2 74.8785 25.6C74.1452 26 73.2868 26.2 72.3035 26.2C71.1702 26.2 70.1368 25.9083 69.2035 25.325C68.2702 24.725 67.5285 23.8833 66.9785 22.8C66.4452 21.7 66.1785 20.4333 66.1785 19ZM76.6285 19.025C76.6285 17.9583 76.3285 17.1167 75.7285 16.5C75.1452 15.8833 74.4285 15.575 73.5785 15.575C72.7285 15.575 72.0035 15.8833 71.4035 16.5C70.8202 17.1 70.5285 17.9333 70.5285 19C70.5285 20.0667 70.8202 20.9167 71.4035 21.55C72.0035 22.1667 72.7285 22.475 73.5785 22.475C74.4285 22.475 75.1452 22.1667 75.7285 21.55C76.3285 20.9333 76.6285 20.0917 76.6285 19.025ZM88.2713 7.5V26H83.9963V7.5H88.2713ZM99.1443 22.375V26H96.9693C95.4193 26 94.211 25.625 93.3443 24.875C92.4777 24.1083 92.0443 22.8667 92.0443 21.15V15.6H90.3443V12.05H92.0443V8.65H96.3193V12.05H99.1193V15.6H96.3193V21.2C96.3193 21.6167 96.4193 21.9167 96.6193 22.1C96.8193 22.2833 97.1527 22.375 97.6193 22.375H99.1443ZM114.676 18.8C114.676 19.2 114.651 19.6167 114.601 20.05H104.926C104.992 20.9167 105.267 21.5833 105.751 22.05C106.251 22.5 106.859 22.725 107.576 22.725C108.642 22.725 109.384 22.275 109.801 21.375H114.351C114.117 22.2917 113.692 23.1167 113.076 23.85C112.476 24.5833 111.717 25.1583 110.801 25.575C109.884 25.9917 108.859 26.2 107.726 26.2C106.359 26.2 105.142 25.9083 104.076 25.325C103.009 24.7417 102.176 23.9083 101.576 22.825C100.976 21.7417 100.676 20.475 100.676 19.025C100.676 17.575 100.967 16.3083 101.551 15.225C102.151 14.1417 102.984 13.3083 104.051 12.725C105.117 12.1417 106.342 11.85 107.726 11.85C109.076 11.85 110.276 12.1333 111.326 12.7C112.376 13.2667 113.192 14.075 113.776 15.125C114.376 16.175 114.676 17.4 114.676 18.8ZM110.301 17.675C110.301 16.9417 110.051 16.3583 109.551 15.925C109.051 15.4917 108.426 15.275 107.676 15.275C106.959 15.275 106.351 15.4833 105.851 15.9C105.367 16.3167 105.067 16.9083 104.951 17.675H110.301ZM121.206 14.375C121.706 13.6083 122.331 13.0083 123.081 12.575C123.831 12.125 124.664 11.9 125.581 11.9V16.425H124.406C123.339 16.425 122.539 16.6583 122.006 17.125C121.473 17.575 121.206 18.375 121.206 19.525V26H116.931V12.05H121.206V14.375Z" fill="#B0B0B0"/>
<rect x="129" y="1" width="66" height="32" rx="5" fill="url(#paint0_linear_1_14)"/>
<path d="M147.925 14.1C147.925 15.1167 147.692 16.05 147.225 16.9C146.758 17.7333 146.042 18.4083 145.075 18.925C144.108 19.4417 142.908 19.7 141.475 19.7H138.825V26H134.55V8.45H141.475C142.875 8.45 144.058 8.69167 145.025 9.175C145.992 9.65833 146.717 10.325 147.2 11.175C147.683 12.025 147.925 13 147.925 14.1ZM141.15 16.3C141.967 16.3 142.575 16.1083 142.975 15.725C143.375 15.3417 143.575 14.8 143.575 14.1C143.575 13.4 143.375 12.8583 142.975 12.475C142.575 12.0917 141.967 11.9 141.15 11.9H138.825V16.3H141.15ZM162.351 26L158.701 19.375H157.676V26H153.401V8.45H160.576C161.959 8.45 163.134 8.69167 164.101 9.175C165.084 9.65833 165.817 10.325 166.301 11.175C166.784 12.0083 167.026 12.9417 167.026 13.975C167.026 15.1417 166.692 16.1833 166.026 17.1C165.376 18.0167 164.409 18.6667 163.126 19.05L167.176 26H162.351ZM157.676 16.35H160.326C161.109 16.35 161.692 16.1583 162.076 15.775C162.476 15.3917 162.676 14.85 162.676 14.15C162.676 13.4833 162.476 12.9583 162.076 12.575C161.692 12.1917 161.109 12 160.326 12H157.676V16.35ZM181.259 26.175C179.609 26.175 178.093 25.7917 176.709 25.025C175.343 24.2583 174.251 23.1917 173.434 21.825C172.634 20.4417 172.234 18.8917 172.234 17.175C172.234 15.4583 172.634 13.9167 173.434 12.55C174.251 11.1833 175.343 10.1167 176.709 9.35C178.093 8.58333 179.609 8.2 181.259 8.2C182.909 8.2 184.418 8.58333 185.784 9.35C187.168 10.1167 188.251 11.1833 189.034 12.55C189.834 13.9167 190.234 15.4583 190.234 17.175C190.234 18.8917 189.834 20.4417 189.034 21.825C188.234 23.1917 187.151 24.2583 185.784 25.025C184.418 25.7917 182.909 26.175 181.259 26.175ZM181.259 22.275C182.659 22.275 183.776 21.8083 184.609 20.875C185.459 19.9417 185.884 18.7083 185.884 17.175C185.884 15.625 185.459 14.3917 184.609 13.475C183.776 12.5417 182.659 12.075 181.259 12.075C179.843 12.075 178.709 12.5333 177.859 13.45C177.026 14.3667 176.609 15.6083 176.609 17.175C176.609 18.725 177.026 19.9667 177.859 20.9C178.709 21.8167 179.843 22.275 181.259 22.275Z" fill="white"/>
<defs>
<linearGradient id="paint0_linear_1_14" x1="126.191" y1="9.34783" x2="194.862" y2="33.3941" gradientUnits="userSpaceOnUse">
<stop stop-color="#FC7676"/>
<stop offset="1" stop-color="#2F91A6"/>
</linearGradient>
</defs>
</svg>
