<svg width="111" height="54" viewBox="0 0 111 54" fill="none" xmlns="http://www.w3.org/2000/svg">
<rect y="4" width="111" height="50" rx="10" fill="url(#paint0_linear_11_91)"/>
<path d="M33.88 24.96C33.88 26.5867 33.5067 28.08 32.76 29.44C32.0133 30.7733 30.8667 31.8533 29.32 32.68C27.7733 33.5067 25.8533 33.92 23.56 33.92H19.32V44H12.48V15.92H23.56C25.8 15.92 27.6933 16.3067 29.24 17.08C30.7867 17.8533 31.9467 18.92 32.72 20.28C33.4933 21.64 33.88 23.2 33.88 24.96ZM23.04 28.48C24.3467 28.48 25.32 28.1733 25.96 27.56C26.6 26.9467 26.92 26.08 26.92 24.96C26.92 23.84 26.6 22.9733 25.96 22.36C25.32 21.7467 24.3467 21.44 23.04 21.44H19.32V28.48H23.04ZM56.9609 44L51.1209 33.4H49.4809V44H42.6409V15.92H54.1209C56.3343 15.92 58.2143 16.3067 59.7609 17.08C61.3343 17.8533 62.5076 18.92 63.2809 20.28C64.0543 21.6133 64.4409 23.1067 64.4409 24.76C64.4409 26.6267 63.9076 28.2933 62.8409 29.76C61.8009 31.2267 60.2543 32.2667 58.2009 32.88L64.6809 44H56.9609ZM49.4809 28.56H53.7209C54.9743 28.56 55.9076 28.2533 56.5209 27.64C57.1609 27.0267 57.4809 26.16 57.4809 25.04C57.4809 23.9733 57.1609 23.1333 56.5209 22.52C55.9076 21.9067 54.9743 21.6 53.7209 21.6H49.4809V28.56ZM87.2147 44.28C84.5747 44.28 82.148 43.6667 79.9347 42.44C77.748 41.2133 76.0014 39.5067 74.6947 37.32C73.4147 35.1067 72.7747 32.6267 72.7747 29.88C72.7747 27.1333 73.4147 24.6667 74.6947 22.48C76.0014 20.2933 77.748 18.5867 79.9347 17.36C82.148 16.1333 84.5747 15.52 87.2147 15.52C89.8547 15.52 92.268 16.1333 94.4547 17.36C96.668 18.5867 98.4014 20.2933 99.6547 22.48C100.935 24.6667 101.575 27.1333 101.575 29.88C101.575 32.6267 100.935 35.1067 99.6547 37.32C98.3747 39.5067 96.6414 41.2133 94.4547 42.44C92.268 43.6667 89.8547 44.28 87.2147 44.28ZM87.2147 38.04C89.4547 38.04 91.2414 37.2933 92.5747 35.8C93.9347 34.3067 94.6147 32.3333 94.6147 29.88C94.6147 27.4 93.9347 25.4267 92.5747 23.96C91.2414 22.4667 89.4547 21.72 87.2147 21.72C84.948 21.72 83.1347 22.4533 81.7747 23.92C80.4414 25.3867 79.7747 27.3733 79.7747 29.88C79.7747 32.36 80.4414 34.3467 81.7747 35.84C83.1347 37.3067 84.948 38.04 87.2147 38.04Z" fill="white"/>
<defs>
<linearGradient id="paint0_linear_11_91" x1="-4.7234" y1="17.0435" x2="108.802" y2="59.8321" gradientUnits="userSpaceOnUse">
<stop stop-color="#FC7676"/>
<stop offset="1" stop-color="#2F91A6"/>
</linearGradient>
</defs>
</svg>
